<svg width="152" height="20" viewBox="0 0 152 20" fill="none" xmlns="http://www.w3.org/2000/svg">
<path d="M28.7781 20C32.7908 20 34.2133 17.6858 34.2133 14.4374V5.24416H31.432V6.32696H31.3895C30.5403 5.49894 29.415 5.09554 28.2685 5.09554C25.5084 5.09554 23.4702 7.28238 23.4702 10.3397C23.4702 13.3546 25.5721 15.4352 28.4171 15.4352C29.6486 15.4352 30.6889 15.0106 31.432 14.2463H31.4745V15.2866C31.4745 16.518 30.4978 17.5796 28.5658 17.5796C27.2069 17.5796 26.2091 17.1762 25.19 16.603L24.5318 18.9597C25.7632 19.6603 27.1857 20 28.7781 20ZM28.9267 12.9299C27.4405 12.9299 26.294 11.8896 26.294 10.2548C26.294 8.68365 27.3768 7.60085 28.9267 7.60085C30.4129 7.60085 31.5382 8.66242 31.5382 10.2335C31.5382 11.8047 30.4554 12.9299 28.9267 12.9299Z" fill="white"/>
<path d="M36.4333 15.6263H39.2146V10.828C39.2146 9.2569 40.1276 8.1104 41.8473 8.1104C42.0172 8.1104 42.2932 8.1104 42.5904 8.13164V5.09554H42.3781C41.1679 5.09554 40.0427 5.69002 39.2571 6.75159H39.2146V5.24416H36.4333V15.6263Z" fill="white"/>
<path d="M48.5857 15.8174C51.8128 15.8174 54.0846 13.6093 54.0846 10.4459C54.0846 7.26115 51.8128 5.09554 48.5857 5.09554C45.2736 5.09554 43.0655 7.34607 43.0655 10.4459C43.0655 13.5456 45.2736 15.8174 48.5857 15.8174ZM48.5857 13.3121C46.9933 13.3121 45.8893 12.0594 45.8893 10.4459C45.8893 8.81104 46.9721 7.57962 48.5857 7.57962C50.1143 7.57962 51.2608 8.74735 51.2608 10.4459C51.2608 12.1444 50.0719 13.3121 48.5857 13.3121Z" fill="white"/>
<path d="M57.7658 15.6263H60.1649L62.0121 9.32059H62.0333L63.9016 15.6263H66.3008L69.8252 5.24416H67.0439L65.0694 11.5924H65.0269L63.1585 5.24416H60.9292L59.0821 11.5924H59.0609L57.0651 5.24416H54.2626L57.7658 15.6263Z" fill="white"/>
<path d="M79.3877 15.8174C80.7889 15.8174 81.4683 15.5202 82.1265 15.1592L81.4259 12.9299C80.9588 13.1635 80.4492 13.2909 80.1095 13.2909C79.4513 13.2909 79.2178 12.8662 79.2178 11.9533V7.55839H82.0203V5.24416H79.2178V1.57113L76.4365 1.86837V5.24416H75.2051V7.55839H76.4365V12.3567C76.4365 14.6921 77.6042 15.8174 79.3877 15.8174Z" fill="white"/>
<path d="M83.5945 15.6263H86.3758V10.3822C86.3758 8.5138 87.31 7.57962 88.7962 7.57962C90.1125 7.57962 90.8131 8.21656 90.8131 10.1062V15.6263H93.5945V9.40552C93.5945 6.22081 92.0021 5.09554 89.794 5.09554C88.4352 5.09554 87.2463 5.56263 86.397 6.49682H86.3758V0H83.5945V15.6263Z" fill="white"/>
<path d="M105.416 10.3397C105.416 7.30361 103.377 5.09554 100.447 5.09554C97.3688 5.09554 95.182 7.26115 95.182 10.4246C95.182 13.673 97.4325 15.8174 100.617 15.8174C102.931 15.8174 104.269 14.9682 105.14 13.8429L103.335 12.1656C102.783 12.845 101.976 13.3333 100.808 13.3333C99.4071 13.3333 98.4092 12.5902 98.0695 11.3376H105.352C105.373 11.1677 105.416 10.6794 105.416 10.3397ZM100.426 7.51592C101.636 7.51592 102.379 8.23779 102.655 9.34183H98.0907C98.4092 8.15287 99.3009 7.51592 100.426 7.51592Z" fill="white"/>
<path d="M107.149 15.6263H109.93V10.828C109.93 9.2569 110.843 8.1104 112.563 8.1104C112.733 8.1104 113.009 8.1104 113.306 8.13164V5.09554H113.094C111.884 5.09554 110.758 5.69002 109.973 6.75159H109.93V5.24416H107.149V15.6263Z" fill="white"/>
<path d="M118.769 15.8174C120.128 15.8174 121.168 15.3079 121.89 14.3737L121.932 14.3949V15.6263H124.586V5.24416H121.805V6.43312L121.763 6.45435C121.019 5.56263 119.915 5.09554 118.705 5.09554C115.924 5.09554 113.822 7.32484 113.822 10.4671C113.822 13.673 115.924 15.8174 118.769 15.8174ZM119.3 13.3121C117.729 13.3121 116.646 12.1444 116.646 10.4883C116.646 8.70488 117.792 7.57962 119.3 7.57962C120.786 7.57962 121.932 8.81104 121.932 10.4883C121.932 12.1868 120.722 13.3121 119.3 13.3121Z" fill="white"/>
<path d="M126.805 19.8301H129.587V14.4798L129.629 14.4586C130.351 15.3291 131.37 15.8174 132.665 15.8174C135.553 15.8174 137.655 13.673 137.655 10.4671C137.655 7.32484 135.553 5.09554 132.75 5.09554C131.476 5.09554 130.372 5.56263 129.629 6.43312H129.587V5.24416H126.805V19.8301ZM132.177 13.3121C130.648 13.3121 129.459 12.1868 129.459 10.4883C129.459 8.81104 130.563 7.57962 132.156 7.57962C133.642 7.57962 134.831 8.70488 134.831 10.4883C134.831 12.1444 133.727 13.3121 132.177 13.3121Z" fill="white"/>
<path d="M139.991 19.8301H142.815L148.398 5.24416H145.575L143.218 11.6136H143.175L140.649 5.24416H137.677L141.838 14.9894L139.991 19.8301Z" fill="white"/>
<path fill-rule="evenodd" clip-rule="evenodd" d="M1.72743 12.1315C1.26719 12.1315 0.889853 12.5057 0.933639 12.9638C1.31157 16.9182 4.35224 20 8.04726 20C11.7423 20 14.7829 16.9182 15.1609 12.9638C15.2047 12.5057 14.8273 12.1315 14.3671 12.1315H1.72743Z" fill="white"/>
<path d="M8.05651 7.51082C8.25253 7.5108 9.52516 6.17626 10.0132 4.22497C10.3995 2.68048 10.3373 0 8.05651 0C6.04743 0.0168406 5.57413 2.12091 6.1004 4.22497C6.58845 6.17626 7.86858 7.51082 8.05651 7.51082Z" fill="white"/>
<path d="M6.83488 10.7614C6.97347 10.6228 6.9297 8.77928 5.89503 7.05441C5.07607 5.68913 3.13666 3.83777 1.52393 5.45049C0.115203 6.88304 1.26833 8.70551 3.12826 9.82118C4.85314 10.8558 6.702 10.8943 6.83488 10.7614Z" fill="white"/>
<path d="M9.26742 10.769C9.40604 10.9076 11.2496 10.8638 12.9745 9.82918C14.3397 9.01021 16.1911 7.0708 14.5784 5.45807C13.1458 4.04934 11.3234 5.20248 10.2077 7.0624C9.17302 8.78728 9.13454 10.6361 9.26742 10.769Z" fill="white"/>
</svg>
